<?xml version="1.0" encoding="UTF-8" standalone="no"?>
<!-- Created with Inkscape (http://www.inkscape.org/) -->

<svg
   version="1.1"
   id="svg1"
   width="1713"
   height="1514"
   viewBox="0 0 1713 1514"
   sodipodi:docname="にこの家ロゴ.svg"
   inkscape:version="1.4.3 (0d15f75, 2025-12-25)"
   xmlns:inkscape="http://www.inkscape.org/namespaces/inkscape"
   xmlns:sodipodi="http://sodipodi.sourceforge.net/DTD/sodipodi-0.dtd"
   xmlns="http://www.w3.org/2000/svg"
   xmlns:svg="http://www.w3.org/2000/svg">
  <defs
     id="defs1" />
  <sodipodi:namedview
     id="namedview1"
     pagecolor="#ffffff"
     bordercolor="#000000"
     borderopacity="0.25"
     inkscape:showpageshadow="2"
     inkscape:pageopacity="0.0"
     inkscape:pagecheckerboard="0"
     inkscape:deskcolor="#d1d1d1"
     inkscape:zoom="0.37690566"
     inkscape:cx="936.57388"
     inkscape:cy="826.46676"
     inkscape:window-width="1920"
     inkscape:window-height="1009"
     inkscape:window-x="492"
     inkscape:window-y="-8"
     inkscape:window-maximized="1"
     inkscape:current-layer="g1" />
  <g
     inkscape:groupmode="layer"
     inkscape:label="Image"
     id="g1">
    <path
       style="fill:#dc7c56;fill-opacity:1"
       d="m 1072.6443,1510.2335 c -0.2605,-0.4215 1.9867,-6.609 4.9939,-13.75 3.0072,-7.1409 5.8387,-13.8835 6.2921,-14.9835 1.6282,-3.9496 8.3023,-20.0413 9.1245,-22 0.4618,-1.1 2.24,-5.6 3.9516,-10 1.7116,-4.4 3.7301,-9.35 4.4857,-11 2.167,-4.7326 11.5079,-27.4311 11.5079,-27.9645 0,-0.2644 1.0845,-2.8556 2.41,-5.7582 1.3254,-2.9025 4.1169,-9.4071 6.2032,-14.4546 3.53,-8.5404 3.9874,-9.1719 6.5901,-9.0979 2.9934,0.085 3.3587,0.7909 1.8318,3.5388 -0.9566,1.7214 -3.0153,6.5636 -6.4779,15.2364 -0.9881,2.475 -2.1771,5.4 -2.6421,6.5 -0.4649,1.1 -2.4663,6.05 -4.4474,11 -1.9811,4.95 -4.2773,10.575 -5.1025,12.5 -0.8253,1.925 -1.8612,4.4 -2.3021,5.5 -0.8379,2.0905 -3.8596,9.4934 -7.3473,18 -1.1274,2.75 -3.0997,7.3346 -4.3829,10.1881 -1.2831,2.8534 -2.3329,5.672 -2.3329,6.2635 0,0.5916 -0.4331,1.8569 -0.9624,2.812 -1.6981,3.0635 -5.7081,12.6111 -7.0294,16.7364 -0.7047,2.2 -2.2804,6.025 -3.5017,8.5 -1.2212,2.475 -2.5104,5.706 -2.8649,7.1801 -0.3546,1.474 -1.3511,3.3865 -2.2145,4.25 -1.648,1.648 -4.9751,2.1102 -5.7828,0.8034 z m -556.57679,-34.583 c -3.53786,-3.9328 -10.28786,-11.2199 -15,-16.1935 -4.71213,-4.9737 -11.90645,-12.6237 -15.98737,-17 -16.26878,-17.4465 -20.38832,-21.5209 -21.41348,-21.1792 -0.73352,0.2445 -1.00193,9.5421 -0.85428,29.5921 l 0.21528,29.2356 -5.26383,-0.3028 -5.26383,-0.3027 -0.26077,-43.442 -0.26076,-43.442 6.03261,6.442 c 3.31794,3.5431 9.51028,10.2445 13.76077,14.8921 4.25048,4.6475 9.52815,10.3195 11.72815,12.6045 2.2,2.285 8.5,9.0354 14,15.0009 5.5,5.9655 11.125,11.9934 12.5,13.3954 l 2.5,2.5491 0.26445,-30.75 0.26445,-30.75 H 518.01445 523 v 43.5 c 0,23.925 -0.1125,43.4552 -0.25,43.4005 -0.1375,-0.055 -3.14462,-3.3173 -6.68249,-7.25 z M 791.5,1481.6097 c -7.83579,-2.4614 -15.85857,-9.8857 -19.19852,-17.7665 -1.34815,-3.181 -0.49548,-4.0288 5.30247,-5.2723 2.66494,-0.5715 3.35887,-0.27 4.90634,2.1317 4.45399,6.9128 11.1639,11.3337 16.98971,11.194 6.51959,-0.1564 8.77598,-1.2363 12.33625,-5.9041 2.98222,-3.91 3.32382,-4.9748 2.92557,-9.1195 -0.73558,-7.6554 -4.702,-11.6293 -18.12221,-18.1565 -11.92006,-5.7975 -15.36703,-8.572 -18.90486,-15.2165 -2.60145,-4.8859 -2.80204,-13.5546 -0.41997,-18.1496 2.23501,-4.3114 8.86308,-9.7875 13.54366,-11.1898 6.92292,-2.0742 14.02501,-1.4612 20.64156,1.7816 3.3,1.6173 7.2801,4.107 8.84467,5.5327 3.16991,2.8884 2.85743,3.8209 -2.57711,7.6906 l -2.91006,2.0722 -2.67875,-2.4967 c -4.03922,-3.7646 -6.54407,-4.741 -12.16267,-4.741 -8.504,0 -14.01608,4.1866 -14.01608,10.6458 0,5.0628 4.01509,8.7522 15.81567,14.5327 17.12244,8.3873 23.28371,16.0819 23.39403,29.2159 0.13916,16.5684 -17.09211,28.4353 -33.7097,23.2153 z m 417.5,0.032 c -10.3837,-3.111 -16.1614,-7.0637 -23.595,-16.1419 -7.5162,-9.1793 -10.6063,-19.0005 -9.7535,-31 0.8236,-11.5886 4.8604,-20.1043 13.5803,-28.6478 8.9147,-8.7344 19.0599,-12.8522 31.6645,-12.8522 6.3304,0 20.3679,3.2126 22.8537,5.2303 1.4617,1.1864 1.7116,10.7697 0.2809,10.7697 -0.533,0 -4.4155,-1.125 -8.6276,-2.5 -8.5448,-2.7893 -18.2781,-3.271 -24.9484,-1.2348 -10.7106,3.2695 -20.2281,12.9272 -22.9184,23.256 -3.8452,14.7626 0.5582,27.298 12.8537,36.5909 10.7005,8.0875 24.7128,8.9667 38.8819,2.4398 l 5.2279,-2.4082 0.3021,4.9238 c 0.1662,2.7081 -0.1023,5.6466 -0.5967,6.5299 -2.5924,4.6324 -25.5849,7.9269 -35.2054,5.0445 z m 189,-0.047 c -2.475,-0.7728 -5.625,-1.7546 -7,-2.1819 -6.7098,-2.0849 -19.4235,-14.5966 -22.7753,-22.4134 -11.1252,-25.9448 0.7907,-53.1283 27.1991,-62.0486 5.6218,-1.8989 7.9329,-2.1403 15.8295,-1.6532 5.0857,0.3137 11.9467,1.4123 15.2467,2.4413 l 6,1.8709 0.5187,5.7787 c 0.2853,3.1783 0.234,5.9547 -0.114,6.1698 -0.348,0.2151 -2.3814,-0.4465 -4.5187,-1.4702 -10.1373,-4.8552 -24.9879,-5.3196 -33.886,-1.0597 -6.3487,3.0395 -14.4301,11.0842 -17.2886,17.2101 -3.2813,7.0319 -3.1507,19.9242 0.2742,27.0728 3.2767,6.8394 10.3182,13.977 16.8262,17.0557 9.6203,4.5512 23.0198,4.4177 32.8405,-0.3271 2.3228,-1.1223 4.5888,-2.0405 5.0355,-2.0405 1.3375,0 0.9384,10.6602 -0.4378,11.6946 -5.7759,4.3411 -25.1631,6.5818 -33.75,3.9007 z m 244,0.5275 c -8.4465,-2.7742 -16.4198,-9.4643 -18.6282,-15.6301 -0.5895,-1.646 -1.6896,-4.5677 -2.4447,-6.4927 -1.0374,-2.6445 -1.4256,-10.8938 -1.5885,-33.75 l -0.2155,-30.25 h 4.9385 4.9384 l 0.112,3.75 c 0.062,2.0625 0.2428,15.675 0.4026,30.25 0.2402,21.8986 0.5759,27.1644 1.9334,30.3265 2.1124,4.9203 7.3476,10.6735 9.7127,10.6735 1.0116,0 1.8393,0.5143 1.8393,1.1429 0,0.8071 2.338,0.9826 7.9589,0.5974 9.9895,-0.6847 14.1632,-3.1786 18.8114,-11.2403 1.5047,-2.6098 1.7947,-7.0321 2.2297,-34 l 0.5,-31 4.8249,-0.3078 4.8248,-0.3079 -0.3248,31.8079 -0.3249,31.8078 -2.6313,5.5 c -5.8219,12.1687 -13.2658,17.1493 -26.3687,17.6426 -4.4,0.1657 -9.125,-0.068 -10.5,-0.5198 z m -684.64535,-1.9249 -4.14536,-0.3027 -4.73193,-10.9476 L 943.74542,1458 h -17.90409 c -16.1502,0 -17.96444,0.1714 -18.52008,1.75 -0.80384,2.2837 -3.91467,9.5278 -6.64852,15.4823 -2.14351,4.6687 -2.2366,4.7326 -6.92273,4.75 -2.6125,0.01 -4.75,-0.197 -4.75,-0.4595 0,-1.0577 4.99012,-13.3544 7.4133,-18.2679 1.42269,-2.8848 2.5867,-5.5168 2.5867,-5.8489 0,-0.332 0.64248,-2.0217 1.42773,-3.7549 0.78525,-1.7331 2.38482,-5.4011 3.5546,-8.1511 1.16978,-2.75 2.52665,-5.9 3.01527,-7 5.03872,-11.3435 7.01829,-15.8951 12.16813,-27.9783 3.27665,-7.6881 6.12341,-14.1442 6.32614,-14.3469 0.4723,-0.4723 4.03152,6.4917 5.86843,11.4822 0.77799,2.1137 4.42333,10.593 8.10076,18.843 3.67743,8.25 7.5244,17.0814 8.54882,19.6252 1.02441,2.5439 2.85281,6.8189 4.0631,9.5 5.55245,12.3003 6.84758,15.2167 8.96075,20.1785 1.2593,2.9569 1.86221,5.612 1.36253,6.0003 -0.49294,0.3831 -2.76167,0.5603 -5.04161,0.3939 z M 939,1448.6284 c 0,-1.1685 -3.59632,-9.7906 -10.79404,-25.8784 -0.92277,-2.0625 -2.02889,-3.75 -2.45804,-3.75 -0.42915,0 -1.51319,1.6875 -2.40897,3.75 -0.89577,2.0625 -2.2099,5.1 -2.92027,6.75 -0.71038,1.65 -2.67019,6.088 -4.35514,9.8623 C 911.14799,1450.373 910.79955,1450 926,1450 c 10.34783,0 13,-0.2798 13,-1.3716 z m 54.5,31.4164 -4,-0.5448 -0.31758,-19.4255 -0.31757,-19.4255 -3.03159,-5.4487 c -1.66737,-2.9967 -4.38145,-7.738 -6.03129,-10.5362 -1.64983,-2.7981 -4.61407,-8.0297 -6.58719,-11.6258 -1.97312,-3.5961 -4.85363,-8.5389 -6.40113,-10.9841 -1.54751,-2.4452 -2.81365,-4.8077 -2.81365,-5.25 0,-0.4423 2.26108,-0.8042 5.02462,-0.8042 4.84905,0 5.11273,0.1485 7.54653,4.25 1.38705,2.3375 4.80599,8.075 7.59765,12.75 2.79166,4.675 6.0042,10.1875 7.13899,12.25 3.00976,5.4703 3.63057,5.2091 8.64482,-3.637 0.97049,-1.7122 2.94609,-5.138 4.39009,-7.613 1.4441,-2.475 4.3025,-7.5375 6.3519,-11.25 l 3.7263,-6.75 h 5.8021 5.8021 l -2.2626,3.7879 c -1.2444,2.0833 -2.821,4.6708 -3.5036,5.75 -0.6826,1.0791 -2.4315,4.2058 -3.8864,6.9481 -1.455,2.7423 -3.8099,6.7923 -5.2333,9 -1.4234,2.2077 -3.0807,4.914 -3.6831,6.014 -4.7296,8.6375 -6.7663,12.1318 -7.54823,12.95 -0.49933,0.5225 -0.90787,9.6084 -0.90787,20.191 0,10.5825 -0.3375,19.4002 -0.75,19.5948 -0.4125,0.1946 -2.55,0.1087 -4.75,-0.191 z m 566.75,0.1356 -2.25,-0.3195 V 1437.9304 1396 h 9.8185 c 13.1729,0 18.9353,1.7882 25.16,7.8074 8.1322,7.8638 7.9031,16.3636 -0.6721,24.9389 l -4.5565,4.5564 2.375,1.8264 c 1.3063,1.0046 2.9098,1.8364 3.5634,1.8487 1.7321,0.032 6.7762,4.9769 9.2038,9.0222 1.6176,2.6954 2.1013,5.1667 2.1042,10.75 0,4.1692 -0.4212,7.25 -0.9963,7.25 -0.55,0 -1,0.6404 -1,1.423 0,2.7133 -8.0171,9.3396 -14.0128,11.5818 -5.5891,2.0902 -22.906,4.0038 -28.7372,3.1756 z m 24.9967,-11.8958 c 4.6467,-1.8592 9.7533,-8.3097 9.7533,-12.3198 0,-3.9856 -2.1782,-8.5306 -5.2441,-10.9422 -3.6198,-2.8473 -11.9338,-5.1999 -17.0601,-4.8274 l -4.1958,0.3048 -0.2795,13.9518 c -0.1538,7.6736 -0.033,14.5933 0.2674,15.3772 0.6855,1.7863 10.7534,0.8585 16.7588,-1.5444 z m -3.9526,-39.751 c 4.4922,-2.1352 6.7059,-5.9208 6.7059,-11.4682 0,-6.1901 -3.9081,-9.9732 -12.0322,-11.6474 -4.9684,-1.0239 -6.5815,-1.0507 -7.1735,-0.1195 -0.42,0.6608 -0.7706,6.7713 -0.779,13.5787 l -0.015,12.3773 4.75,-0.4588 c 2.6125,-0.2524 6.4573,-1.2703 8.5441,-2.2621 z M 27,1439 c 0,-22.55 0.1125,-41.3375 0.25,-41.75 0.1375,-0.4125 6.325,-0.7453 13.75,-0.7395 13.429267,0.01 13.531495,0.028 19.511124,3.3495 3.600427,1.9999 7.209781,5.0035 9,7.4895 2.735495,3.7986 2.988876,4.8426 2.988876,12.3144 0,7.4779 -0.255182,8.5269 -3.037159,12.4852 -5.273475,7.5032 -13.16545,11.2777 -26.212841,12.5369 L 37,1445.2892 V 1462.6446 1480 h -5 -5 z m 26.511288,-5.5921 c 5.387226,-2.0109 8.492793,-6.6822 8.771718,-13.194 0.243876,-5.6936 -1.848916,-9.4586 -6.903266,-12.4191 -2.791943,-1.6354 -16.883379,-3.9578 -17.892327,-2.9489 C 37.219336,1405.114 37,1412.2915 37,1420.7958 v 15.4625 l 6.25,-0.6765 c 3.4375,-0.3721 8.055079,-1.3503 10.261288,-2.1739 z M 89,1438 v -42 h 22 22 v 4.9758 4.9758 l -16.75,0.2742 -16.75,0.2742 v 11 11 l 16.75,0.2742 16.75,0.2742 v 4.9758 V 1439 H 115.97395 98.947908 l 0.276046,15.1165 0.276046,15.1165 16.5,0.1335 16.5,0.1335 0.30226,5.25 0.30226,5.25 H 111.05226 89 Z m 73.64239,41.3091 c -0.38003,-0.3801 -0.66865,-15.5676 -0.64138,-33.75 0.0273,-18.1825 0.0382,-34.5216 0.0243,-36.3091 L 162,1406 h -9.5 -9.5 v -5 -5 h 24.5 24.5 v 5 5 h -10 -10 v 37 37 h -4.33333 c -2.38334,0 -4.64426,-0.3109 -5.02428,-0.6909 z m 79.13001,-39.0052 c -0.14982,-21.8922 -0.1286,-40.8164 0.0471,-42.0539 l 0.31955,-2.25 h 21.98524 21.98524 l -0.30479,4.75 -0.30479,4.75 -16.45691,0.2758 c -9.05129,0.1516 -16.70923,0.684 -17.01762,1.183 -0.3084,0.499 -0.55279,5.5499 -0.5431,11.2242 l 0.0176,10.317 17.25,0.2736 17.25,0.2736 v 4.9528 4.9528 l -17.25,0.2736 -17.25,0.2736 v 20 20 l -4.7276,0.3039 -4.7276,0.3039 z M 302,1437.9062 v -42.0937 l 14.25,0.4199 c 11.96835,0.3527 14.89479,0.7545 18.27706,2.5094 9.69035,5.0278 15.02338,14.28 13.51331,23.4439 -1.09915,6.6702 -2.31394,9.7727 -4.82168,12.3143 -3.72042,3.7706 -5.91763,5.2196 -10.66281,7.0318 -2.61338,0.9981 -4.97385,2.3938 -5.24548,3.1017 -0.27164,0.7079 1.26894,3.8924 3.42351,7.0768 4.72905,6.9893 16.69901,25.2954 17.68065,27.0397 0.52548,0.9337 -0.68748,1.25 -4.7939,1.25 h -5.49738 l -6.72988,-10.25 c -3.70144,-5.6375 -8.22918,-12.5329 -10.06165,-15.3232 C 319.49929,1451.6366 318,1448.8399 318,1448.212 318,1447.0179 314.90008,1445 313.06574,1445 312.35202,1445 312,1450.7803 312,1462.5 v 17.5 h -5 -5 z m 25.45,-3.9936 c 0.5225,-0.5019 1.52986,-0.9126 2.23857,-0.9126 3.61054,0 8.31143,-7.4443 8.31143,-13.162 0,-4.7883 -3.46781,-10.3575 -7.70012,-12.3663 -2.08993,-0.992 -7.06238,-2.0131 -11.04988,-2.2691 L 312,1404.737 v 14.9648 c 0,8.2307 0.3375,15.3043 0.75,15.7191 0.96692,0.9724 13.45102,-0.3086 14.7,-1.5083 z M 366,1438 v -42 h 5 5 v 42 42 h -5 -5 z m 28.02163,0 -0.0611,-42 h 22.35589 22.35588 l -0.0861,4.75 -0.0861,4.75 -17,0.5 -17,0.5 v 11 11 l 17.19256,0.2734 17.19256,0.2733 -0.0384,4.9535 -0.0384,4.9534 -17.15419,0.2732 L 404.5,1439.5 v 14.9522 14.9521 l 12,0.2753 c 6.6,0.1514 14.3625,0.2854 17.25,0.2978 L 439,1470 v 5 5 h -22.45862 -22.45862 z m 147.73146,41.3857 c -0.29299,-0.4871 -0.55115,-19.4482 -0.57367,-42.1357 l -0.041,-41.25 h 14.74927 c 28.62281,0 39.98798,6.7855 48.96081,29.2318 3.32185,8.31 2.01409,22.613 -2.93983,32.1532 -2.87439,5.5355 -9.58756,13.2151 -13.80448,15.7918 -8.03392,4.909 -12.82962,5.9651 -29.71132,6.5432 -8.95812,0.3067 -16.34354,0.1584 -16.63982,-0.3343 z m 37.83693,-13.6441 c 6.2519,-3.2097 10.91864,-8.3817 14.14469,-15.6764 2.09841,-4.7449 2.39447,-6.6943 2.0583,-13.5536 -0.46208,-9.4284 -3.13585,-15.8544 -9.06302,-21.7816 -6.15748,-6.1575 -11.38955,-7.9019 -24.22999,-8.0786 l -11,-0.1514 -0.26442,31.3738 -0.26442,31.3737 11.76442,-0.4464 c 10.19995,-0.387 12.44131,-0.7939 16.85444,-3.0595 z M 623,1438 v -42 h 4.5 4.5 l 0.0654,20.25 c 0.036,11.1375 0.009,27.5471 -0.0602,36.4658 -0.14696,18.9625 -1.15697,17.6467 12.99481,16.928 4.675,-0.2375 9.7375,-0.1982 11.25,0.087 2.55296,0.4818 2.75,0.8683 2.75,5.394 V 1480 h -18 -18 z m 63.80689,21.75 -0.30749,-20.25 -8.36707,-14 c -4.60189,-7.7 -9.26553,-15.575 -10.36365,-17.5 -1.09811,-1.925 -3.11305,-5.4125 -4.47765,-7.75 l -2.48107,-4.25 h 5.52261 5.52262 l 3.57241,5.8808 c 1.96482,3.2345 3.5724,6.2365 3.5724,6.6713 0,0.4347 0.61667,1.5009 1.37038,2.3692 0.75371,0.8683 2.4921,3.6037 3.86311,6.0787 4.6717,8.4336 6.9632,12 7.7103,12 0.86145,0 3.61458,-3.0008 4.17572,-4.5514 0.20927,-0.5782 3.94959,-7.2157 8.31182,-14.75 L 712.36267,1396 h 5.31866 c 2.92527,0 5.31867,0.177 5.31867,0.3932 0,0.4066 -11.70762,20.912 -17.47495,30.6068 C 696.40299,1442.334 697,1439.9505 697,1461.0355 V 1480 h -4.94281 -4.94281 z M 855,1443 v -37 h -9.5 -9.5 v -5 -5 h 24.5 24.5 v 5.0586 5.0586 l -9.75,-0.1969 -9.75,-0.1969 -0.26217,37.1383 L 864.97566,1480 H 859.98783 855 Z m 404.5417,34.3099 c -0.3851,-1.5343 -0.5812,-20.4774 -0.4357,-42.0956 l 0.2646,-39.306 5.0647,0.2959 5.0647,0.2958 0.034,4.5 c 0.019,2.475 0.131,9.797 0.25,16.2711 l 0.2163,11.7712 19.75,-0.2712 19.75,-0.2711 0.2748,-16.25 0.2747,-16.25 h 4.9862 4.9862 l -0.2609,41.75 -0.261,41.75 -4.7291,0.3039 -4.7291,0.304 -0.2709,-20.304 -0.2709,-20.3039 -19.7292,-0.2711 -19.7293,-0.271 -0.2707,20.271 -0.2708,20.2711 -4.6291,0.2999 c -4.3334,0.2807 -4.6738,0.1216 -5.3292,-2.49 z m 79.0613,-0.6125 c -0.7329,-3.9067 -0.6237,-75.9021 0.1194,-78.7439 0.4175,-1.5966 1.3901,-1.9535 5.3227,-1.9535 h 4.8119 l -0.2901,10.25 c -0.1596,5.6375 -0.3525,24.5375 -0.4285,42 L 1348,1480 h -4.3887 c -4.174,0 -4.419,-0.1616 -5.0083,-3.3026 z M 1448,1438.0548 V 1396 h 5 5 v 16.5 16.5 h 19.893 c 17.2173,0 19.9747,-0.2128 20.5,-1.5818 0.3339,-0.87 0.607,-8.3196 0.607,-16.5548 v -14.973 l 4.75,0.3048 4.75,0.3048 -0.252,40 c -0.1386,22 -0.2511,40.7875 -0.25,41.75 0,1.4065 -0.8772,1.75 -4.4773,1.75 h -4.4793 l -0.2707,-20.25 -0.2707,-20.25 h -20 -20 l -0.5,20 -0.5,20 -4.75,0.3048 -4.75,0.3048 z m 79.5073,40.957 c -0.3359,-0.5435 -0.5362,-19.4435 -0.4452,-42 L 1527.2277,1396 h 4.8862 4.8861 v 42 42 h -4.441 c -2.4425,0 -4.7158,-0.4447 -5.0517,-0.9882 z m -223.0931,-151.7771 c -0.5972,-0.4041 -1.8564,-3.8386 -2.7983,-7.6323 -0.9418,-3.7937 -2.3627,-8.454 -3.1575,-10.3562 -0.7948,-1.9023 -1.257,-3.7631 -1.027,-4.1353 0.23,-0.3721 3.9395,-0.3563 8.2434,0.035 12.4015,1.1279 32.0082,0.9615 37.1324,-0.3152 7.4889,-1.8658 15.5244,-7.465 19.6045,-13.6607 5.9212,-8.9912 7.8955,-17.3936 7.7445,-32.9603 -0.071,-7.3096 -0.585,-14.1426 -1.1425,-15.1843 -0.5576,-1.0417 -1.0137,-2.8236 -1.0137,-3.9598 0,-2.7288 -2.4936,-2.6518 -5.9665,0.1843 -1.5154,1.2375 -3.6054,2.8005 -4.6444,3.4732 -1.039,0.6728 -4.5891,2.9717 -7.8891,5.1087 -3.3,2.1369 -8.8443,5.749 -12.3207,8.0267 -3.4764,2.2778 -6.4411,4.1414 -6.5883,4.1414 -0.1471,0 -6.5278,3.4894 -14.1792,7.7541 -17.7765,9.9083 -48.9954,25.2459 -51.3867,25.2459 -0.4269,0 -3.3365,1.1323 -6.4658,2.5162 -3.1293,1.3839 -8.6978,3.588 -12.3744,4.898 -3.6767,1.31 -11.8448,4.2277 -18.1513,6.4838 -6.3065,2.2561 -11.9767,4.102 -12.6005,4.102 -1.0492,0 -7.4271,-9.275 -7.4379,-10.8164 -0,-0.376 -1.5702,-2.3881 -3.4835,-4.4713 -2.2071,-2.403 -3.0279,-3.9444 -2.2453,-4.2164 0.6785,-0.2357 6.1836,-1.8276 12.2336,-3.5375 6.05,-1.7098 11.9,-3.4773 13,-3.9278 1.1,-0.4505 4.25,-1.584 7,-2.5189 5.6301,-1.914 14.9824,-5.3525 18,-6.6179 1.1,-0.4612 4.4463,-1.7775 7.4363,-2.9251 6.8513,-2.6295 12.555,-5.2501 32.6876,-15.0187 25.9547,-12.5936 54.349,-30.4369 65.5419,-41.1873 1.7426,-1.6737 1.7194,-1.8973 -0.6324,-6.1099 -3.9331,-7.0448 -10.5282,-16.6528 -11.4308,-16.6528 -0.4581,0 -2.0399,0.9494 -3.5151,2.1098 -6.6183,5.206 -49.8899,28.2851 -61.8583,32.9925 -2.876,1.1312 -8.0731,3.371 -11.549,4.9772 -3.4758,1.6063 -6.5578,2.9205 -6.8488,2.9205 -0.291,0 -1.9471,0.6334 -3.6803,1.4076 -1.7331,0.7741 -8.7134,3.4741 -15.5117,6 -12.2965,4.5686 -17.1394,5.5639 -17.1394,3.5226 0,-0.9581 -5.5227,-9.6705 -6.934,-10.9389 -0.3113,-0.2797 -1.6281,-1.7115 -2.9262,-3.1817 l -2.3602,-2.6732 4.3602,-1.1288 c 7.9665,-2.0625 33.2299,-10.2569 42.3602,-13.7399 27.218,-10.3829 70.5214,-32.5539 72.2179,-36.9749 0.5857,-1.5262 -3.0825,-5.4116 -11.8954,-12.5997 -3.756,-3.0635 -5.0243,-3.6081 -6.4949,-2.789 -5.2435,2.9207 -19.1628,8.6504 -31.8276,13.1015 -4.95,1.7397 -11.925,4.2112 -15.5,5.4923 -3.575,1.2812 -8.3,2.8496 -10.5,3.4854 -2.2,0.6358 -4.9,1.525 -6,1.9759 -1.1,0.451 -4.925,1.5953 -8.5,2.5429 -3.575,0.9477 -7.625,2.0942 -9,2.5479 -6.0165,1.9853 -9,2.1608 -9,0.5295 0,-0.8687 -0.353,-1.5795 -0.7844,-1.5795 -0.4314,0 -1.5789,-1.345 -2.5499,-2.9888 -0.9711,-1.6439 -3.3489,-5.0631 -5.284,-7.5983 -1.9352,-2.5352 -3.3752,-4.738 -3.2001,-4.8952 0.1751,-0.1571 5.9434,-1.6986 12.8184,-3.4254 14.32,-3.5968 22.7477,-5.9764 35.5,-10.0233 4.95,-1.5709 11.475,-3.6167 14.5,-4.5461 18.289,-5.6194 61.2127,-24.9631 62.1829,-28.0229 0.2067,-0.6519 -13.1844,-1.0911 -38.4678,-1.2618 l -38.7848,-0.2618 0.2848,-10.2382 0.2849,-10.2382 102.75,-0.2547 102.75,-0.2547 V 1117.4953 1128 h -32 c -29.8114,0 -31.9997,0.1197 -31.9951,1.75 0,0.9625 1.6332,6.025 3.6234,11.25 1.9902,5.225 4.2322,11.177 4.9821,13.2266 2.687,7.3432 13.4222,29.6423 14.6438,30.4178 0.7489,0.4754 7.8719,-3.007 10.7458,-5.2536 0.825,-0.6449 3.075,-2.0107 5,-3.0352 3.36,-1.7881 17.9666,-11.2879 19,-12.357 1.2279,-1.2704 9.054,-5.9986 9.9289,-5.9986 0.5344,0 1.3316,-0.6061 1.7714,-1.3469 0.4398,-0.7408 5.1818,-4.584 10.5378,-8.5404 l 9.738,-7.1934 5.6656,4.2903 c 3.116,2.3597 7.6611,5.7861 10.1002,7.6142 4.2751,3.2042 4.3719,3.393 2.6914,5.25 -0.9588,1.0594 -2.311,1.9262 -3.005,1.9262 -0.6939,0 -1.4116,0.4033 -1.595,0.8963 -0.1833,0.4929 -2.4062,2.1804 -4.9397,3.75 -2.5335,1.5695 -9.3322,6.0539 -15.108,9.9653 -8.9012,6.0279 -36.885,22.53 -46.0356,27.1473 -1.5125,0.7632 -2.75,1.5955 -2.75,1.8495 0,0.9127 3.5366,6.0084 8.6002,12.3916 14.9682,18.8688 32.6268,35.4773 47.3135,44.5 0.8953,0.55 3.0025,1.9873 4.6826,3.1939 3.3626,2.4149 19.9267,10.8483 28.1064,14.3099 l 5.2028,2.2018 -6.2028,6.2097 c -3.4115,3.4153 -7.3277,7.8659 -8.7027,9.8903 -2.5961,3.8223 -3.83,4.3285 -6.7636,2.7747 -0.955,-0.5059 -6.0114,-3.0435 -11.2364,-5.6392 -16.3124,-8.1036 -37.1971,-23.5238 -50.1636,-37.0382 -26.3727,-27.4869 -44.7432,-57.9892 -60.7705,-100.9029 -1.2325,-3.3 -2.6253,-6.9 -3.0953,-8 -0.4699,-1.1 -1.8666,-5.375 -3.1039,-9.5 -3.3456,-11.1544 -3.4422,-11.1965 -11.7738,-5.1367 -3.8842,2.8252 -7.4817,5.1367 -7.9943,5.1367 -0.5125,0 -1.0819,0.3604 -1.2653,0.8009 -0.3167,0.7609 -3.6878,2.7999 -15.5833,9.4253 -2.8875,1.6082 -5.2469,3.4527 -5.2432,4.0989 0,0.6462 1.4852,2.1813 3.292,3.4113 7.5618,5.1477 32.7012,33.4718 32.7012,36.8439 0,0.336 0.9169,1.8986 2.0374,3.4723 2.5961,3.6459 11.9626,22.4143 11.9626,23.9704 0,0.6461 0.6528,2.5927 1.4507,4.3259 6.5893,14.3129 8.3427,47.0246 3.3583,62.6511 -3.7421,11.7316 -6.9018,17.1526 -14.2798,24.5 -13.2983,13.243 -24.1427,16.509 -54.737,16.4847 -10.6107,-0.01 -19.7808,-0.3459 -20.378,-0.75 z M 217,1310.6479 c 0,-0.1936 -1.07544,-4.8061 -2.38986,-10.25 -1.31442,-5.4438 -3.15022,-14.6229 -4.07955,-20.3979 -0.92933,-5.775 -2.10745,-12.3 -2.61805,-14.5 -1.31659,-5.6727 -3.91392,-45.5166 -3.90529,-59.9085 0.007,-11.5356 2.53176,-50.4371 3.47828,-53.5915 0.24755,-0.825 0.93239,-5.775 1.52186,-11 0.58947,-5.225 1.48433,-11.525 1.98859,-14 1.45844,-7.1584 3.74608,-20.2475 7.6027,-43.5 1.76774,-10.6581 4.3075,-28.6856 4.62107,-32.8008 l 0.22205,-2.9143 12.5291,0.7209 c 11.93976,0.687 17.11457,1.2463 17.79126,1.923 0.35266,0.3527 -0.75025,4.8803 -3.79305,15.5712 -2.37038,8.3283 -7.54572,32.4111 -9.45549,44 -1.88674,11.4491 -5.38463,33.399 -7.01172,44 -3.50961,22.866 -4.3167,46.959 -2.44045,72.8517 1.23497,17.043 1.62471,19.4196 3.10374,18.9266 0.60029,-0.2001 1.77218,-2.1446 2.60419,-4.3211 1.61054,-4.213 5.93481,-14.4155 9.94221,-23.4572 1.34072,-3.025 3.11229,-7.075 3.93683,-9 3.04271,-7.1037 4.7669,-9.8626 5.79604,-9.2744 0.58055,0.3318 3.67061,2.4139 6.8668,4.6267 5.10457,3.5341 5.73865,4.335 5.21423,6.5856 -0.67139,2.8813 -3.95749,11.7704 -6.30749,17.0621 -3.515,7.9151 -14.19841,39.2873 -17.42221,51.1609 -1.7498,6.4447 -2.24869,10.8676 -2.19605,19.4695 l 0.0681,11.1304 -5.08393,0.6109 C 232.12811,1311.0273 217,1311.2303 217,1310.6479 Z m 795,-6.2044 c -2.475,-3.5896 -6.2265,-8.7939 -8.3366,-11.5651 -2.1101,-2.7712 -3.6592,-5.2159 -3.4425,-5.4326 0.2167,-0.2168 4.8682,-0.8719 10.3366,-1.4559 27.2222,-2.9072 51.0214,-10.9001 70.1043,-23.5443 10.231,-6.7789 23.4903,-19.6652 28.9085,-28.0952 10.334,-16.0783 14.3741,-30.3825 14.4081,-51.0124 0.03,-18.3216 -1.411,-24.999 -9.4608,-43.838 -6.472,-15.1464 -24.9553,-33.3854 -42.4714,-41.9099 -12.224,-5.9491 -27.7624,-10.5283 -40.953,-12.0691 -6.0381,-0.7052 -7.0524,0.01 -7.0779,4.9562 -0.01,1.6374 -0.6743,6.3624 -1.4799,10.5 -0.8055,4.1375 -2.1861,11.5728 -3.068,16.5228 -5.1297,28.7928 -18.3781,74.7673 -27.37597,95 -2.13235,4.7948 -12.21196,25.1813 -13.34494,26.9907 -0.68557,1.0949 -2.79709,4.4699 -4.69227,7.5 -7.40187,11.8345 -17.08671,22.2583 -26.79734,28.8418 -7.85008,5.3222 -12.96728,7.5118 -21.49511,9.1977 -18.26605,3.611 -40.13799,-6.4894 -53.42115,-24.6697 -5.55952,-7.6092 -11.23121,-18.4757 -13.23665,-25.3605 -0.72093,-2.475 -1.91279,-6.3 -2.64857,-8.5 -2.80548,-8.3885 -3.69131,-29.3107 -1.96142,-46.3267 1.10282,-10.8479 7.81649,-30.2625 13.99592,-40.4734 1.93056,-3.19 3.5101,-6.2275 3.5101,-6.75 0,-0.5224 0.40724,-0.9499 0.90498,-0.9499 0.49774,0 2.10425,-2.0464 3.57003,-4.5476 4.10447,-7.0037 20.88067,-23.8558 32.18206,-32.3276 21.35684,-16.0097 49.70751,-27.617 77.34293,-31.6657 27.207,-3.9859 58.0841,-1.6603 80.829,6.088 42.9887,14.6444 72.837,45.5958 83.372,86.4529 2.8968,11.2344 3.6267,39.5718 1.3136,51 -4.3203,21.3455 -12.2331,38.1097 -24.849,52.6451 -19.8086,22.8226 -46.1389,37.5306 -82.6656,46.1768 -9.6153,2.276 -24.4198,5.1857 -26.2703,5.1631 -0.6763,-0.01 -3.2547,-2.9519 -5.7297,-6.5415 z m -82.23365,-51.1176 c 13.53029,-6.6198 23.65701,-21.756 39.35666,-58.8259 6.92379,-16.3484 16.37827,-50.7631 21.42833,-78 1.3257,-7.15 2.86898,-14.919 3.42951,-17.2644 0.56053,-2.3453 1.01915,-6.2828 1.01915,-8.75 0,-4.4272 -0.0439,-4.4856 -3.37178,-4.4856 -1.85447,0 -7.81697,1.1745 -13.25,2.6099 -5.43302,1.4355 -11.10265,2.8347 -12.59918,3.1093 -4.99451,0.9165 -28.17559,12.9311 -36.45267,18.8932 -25.03499,18.0331 -41.78289,42.8309 -47.31123,70.0514 -1.63032,8.0274 -0.83393,30.7912 1.35007,38.5899 7.84632,28.0179 28.21113,42.9717 46.40114,34.0722 z M 642,1308.0248 c -37.19691,-2.5332 -60.95016,-10.3635 -79.57979,-26.2338 C 559.16435,1279.0174 551,1268.0526 551,1266.4536 c 0,-0.6305 -0.7875,-2.678 -1.75,-4.55 -1.45367,-2.8273 -1.74802,-6.1129 -1.73829,-19.4036 0.0108,-14.78 0.26956,-17.0484 3.39343,-29.75 l 3.38172,-13.75 h 3.17291 c 1.7451,0 5.61806,0.4353 8.60657,0.9674 2.98851,0.5321 7.90866,1.112 10.93366,1.2887 4.23956,0.2477 5.40961,0.6562 5.10559,1.7826 -0.21693,0.8037 -1.27672,4.3863 -2.35509,7.9613 -2.9761,9.8663 -4.96835,23.784 -4.33581,30.2896 1.92323,19.7802 19.48421,32.9667 51.82284,38.9138 11.14685,2.0499 15.17378,2.249 44.26247,2.1882 32.14904,-0.067 55.675,-1.5528 79.5,-5.0202 12.94279,-1.8837 29.01927,-5.048 32.63948,-6.4244 5.14389,-1.9557 5.44409,-1.1828 5.13969,13.2333 l -0.27917,13.2207 -6.5,1.3438 c -28.79424,5.9531 -60.75423,9.001 -101,9.632 -15.125,0.2371 -32.675,0.079 -39,-0.352 z m -271,-11.1482 c -14.87531,-1.6964 -23.30101,-3.7349 -35,-8.4679 -9.47482,-3.8332 -19.98235,-12.8587 -23.50757,-20.1919 -0.98269,-2.0443 -2.25004,-4.6168 -2.81633,-5.7168 -0.5663,-1.1 -1.22844,-6.7294 -1.47142,-12.5098 -0.42418,-10.0908 1.31832,-23.0776 4.86236,-36.2392 l 1.01137,-3.7559 10.21079,0.566 c 13.55234,0.7512 15.06077,1.0938 14.22293,3.2308 -1.9308,4.9245 -4.5094,20.509 -4.49017,27.1376 0.0341,11.747 3.57623,17.6254 14.1354,23.4585 6.78995,3.7509 12.04542,5.2965 23.97098,7.0496 21.01255,3.0889 65.09868,1.2493 96.37166,-4.0214 4.95,-0.8342 11.1375,-1.7764 13.75,-2.0937 l 4.75,-0.577 V 1278.3728 1292 h -2.36901 c -1.30296,0 -6.28505,0.6829 -11.07133,1.5176 -20.65977,3.6027 -82.62562,5.6322 -102.55966,3.359 z m 842,-213.2682 v -32.3916 l 2.4592,-0.6172 c 1.3525,-0.3395 32.065,-0.5486 68.25,-0.4648 l 65.7908,0.1523 0.2767,-14.6435 0.2768,-14.6436 H 1363.5267 1377 v 14.4326 c 0,12.8844 0.1877,14.4873 1.75,14.9426 0.9625,0.2805 31.9,0.4125 68.75,0.2934 36.85,-0.1191 67.7937,-0.039 68.7637,0.1776 1.6469,0.3681 1.7462,2.5216 1.5,32.524 l -0.2637,32.1298 -13.25,0.279 -13.25,0.2791 v -21.51 c 0,-21.479 -0,-21.5108 -2.25,-22.0532 -1.2375,-0.2988 -57.825,-0.4199 -125.75,-0.2691 l -123.5,0.2742 -0.2695,21.75 -0.2695,21.75 H 1225.9805 1213 Z m -857,20.1008 c -0.275,-0.2532 -6.49873,-0.7694 -13.83051,-1.1471 -7.33179,-0.3776 -13.96929,-0.9318 -14.75,-1.2314 C 326.29831,1100.9005 326,1098.1604 326,1088.2923 v -12.4937 l 4.75,0.555 c 21.45696,2.5069 32.64644,2.9695 70.75,2.9248 25.58201,-0.03 46.1045,-0.5145 52.5,-1.2394 5.775,-0.6546 13.10136,-1.4362 16.28079,-1.737 l 5.78079,-0.5468 -0.28079,12.8724 -0.28079,12.8724 -9.5,0.7543 c -10.79987,0.8574 -109.23477,2.1594 -110,1.4549 z m 256,-8.3208 c -17.325,-0.7267 -33.975,-1.6739 -37,-2.1049 l -5.5,-0.7835 -0.28085,-12.8802 -0.28085,-12.8802 5.28085,0.6013 c 28.29474,3.2216 125.3715,4.3178 156.28085,1.7647 8.25,-0.6815 19.3875,-1.4941 24.75,-1.806 l 9.75,-0.567 v 12.6147 c 0,14.9151 2.54562,13.1417 -21,14.6292 -51.04603,3.2249 -81.11067,3.5464 -132,1.4119 z m 881.2868,-150.25544 c -4.3485,-4.34854 -5.6887,-12.84853 -4.8815,-30.96195 0.8904,-19.98195 -2.4336,-69.36605 -6.4395,-95.67101 -3.6934,-24.25225 -4.4153,-27.72662 -9.974,-48 -1.204,-4.39084 -5.7937,-16.72066 -6.9746,-18.73643 -0.5594,-0.95504 -1.0172,-2.20534 -1.0172,-2.77845 0,-1.42695 -5.1782,-12.45944 -18.1449,-38.65882 -9.6544,-19.50669 -10.8955,-22.59404 -10.3187,-25.66844 0.7833,-4.1758 4.4243,-6.13106 9.6065,-5.15888 2.5973,0.48727 4.2136,1.80346 6.8763,5.59972 1.9144,2.7295 3.9308,5.53193 4.4808,6.22764 0.55,0.6957 1.8339,2.81938 2.853,4.71929 4.1618,7.75817 7.9569,14.51277 8.6832,15.45437 2.2026,2.85571 6.2585,11.7281 9.9449,21.75478 2.2739,6.18487 4.7233,12.59702 5.4431,14.24923 0.7199,1.6522 1.6297,4.4647 2.0218,6.25 0.3921,1.78529 1.0647,3.24599 1.4946,3.24599 1.1932,0 2.0219,-10.38269 2.6738,-33.5 0.5023,-17.81571 0.3533,-21.55351 -0.9829,-24.65036 -0.8663,-2.0077 -2.1596,-4.2577 -2.8739,-5 -4.7154,-4.89977 -9.1467,-11.44227 -10.7841,-15.92216 -4.5295,-12.39212 -5.1457,-58.11433 -1.0016,-74.31756 1.9165,-7.49369 5.2313,-15.13222 6.8423,-15.76767 0.4772,-0.18824 2.5143,-2.51422 4.5267,-5.16885 3.2574,-4.29672 3.6684,-5.50432 3.7435,-11 0.1701,-12.446 1.3121,-17.75751 4.3863,-20.40188 2.3245,-1.99944 3.4794,-2.31723 6.4313,-1.76968 1.9789,0.36706 4.3082,1.30406 5.1761,2.08221 2.2129,1.98388 3.9219,10.24494 3.9219,18.95744 0,6.66835 0.2757,7.70925 2.8272,10.67371 3.7561,4.36395 8.4317,11.4615 10.3985,15.7848 1.9819,4.35651 4.5185,17.92875 5.3266,28.5 0.629,8.2288 -0.7226,29.37536 -2.5566,40 -1.7978,10.41452 -5.4776,18.58803 -11.2945,25.08711 l -4.3972,4.91289 0.174,30.94199 c 0.1224,21.77743 0.5051,31.05237 1.292,31.31468 0.6149,0.20498 1.638,-1.56892 2.2734,-3.94199 0.6354,-2.37307 1.7829,-5.43968 2.55,-6.81468 0.767,-1.375 5.6837,-13.3 10.926,-26.5 5.2423,-13.2 9.9459,-24.9 10.4524,-26 0.5066,-1.1 1.9313,-4.475 3.1661,-7.5 1.2348,-3.025 3.2124,-7.075 4.3947,-9 1.1823,-1.925 3.2942,-5.56046 4.6931,-8.0788 4.5599,-8.20863 5.2668,-9.41429 5.817,-9.9212 0.2986,-0.275 2.0575,-4.1 3.9087,-8.5 l 3.366,-8 -0.1731,-16.70439 c -0.1997,-19.27016 0.4078,-21.83327 9.281,-39.16058 11.6392,-22.72859 24.5334,-40.39883 33.5747,-46.01061 11.0836,-6.87942 24.6617,-6.81325 31.2546,0.15231 4.0387,4.26699 6.1367,12.10338 5.3903,20.13398 -1.4498,15.59976 -8.735,35.58499 -17.7778,48.76947 -1.5769,2.29909 -2.8671,4.46662 -2.8671,4.81672 0,1.607 -6.1119,8.77624 -14.4954,17.0031 -9.2565,9.08362 -19.1877,15.5 -23.9908,15.5 -2.0635,0 -3.5776,2.50615 -12.4318,20.57779 -5.5451,11.31778 -10.082,20.82498 -10.082,21.12711 0,0.30213 -1.5333,3.75463 -3.4073,7.67221 -5.6294,11.76807 -9.7726,20.97369 -10.6319,23.62289 -0.446,1.375 -1.7741,4.975 -2.9511,8 -3.9848,10.2405 -8.0156,23.9854 -9.4346,32.17202 -1.8413,10.62282 5.3164,2.14928 27.8424,-32.96119 2.5722,-4.00904 9.1991,-11.95876 14.7266,-17.66605 5.5275,-5.70729 10.6156,-11.20216 11.307,-12.21083 0.6913,-1.00867 1.5552,-5.51144 1.9198,-10.00615 0.7692,-9.4824 2.1323,-13.83167 6.6986,-21.37359 13.9621,-23.06056 48.9715,-50.29793 66.5207,-51.75325 8.8797,-0.73637 15.3904,1.17072 19.9549,5.8452 l 3.8852,3.97885 0.4016,9.99853 c 0.2697,6.71361 -0.023,11.06266 -0.8917,13.23749 -6.649,16.65246 -37.5188,46.14833 -59.9402,57.27251 -3.025,1.50083 -6.2932,3.12715 -7.2627,3.61405 -3.2551,1.63476 -15.2017,3.61755 -18.8878,3.13485 -3.4809,-0.45582 -3.7822,-0.25277 -6.4838,4.36977 -1.5583,2.66628 -3.3849,5.52279 -4.0591,6.34779 -0.6742,0.825 -3.4916,4.65 -6.2609,8.5 -2.7692,3.85 -8.327,11.5 -12.3505,17 -8.7995,12.02867 -19.6952,28.76787 -19.6952,30.25795 0,0.59146 -0.3375,1.22538 -0.75,1.40872 -0.9241,0.4107 -5.25,9.15279 -5.25,10.60953 0,0.58142 -0.4105,1.20713 -0.9121,1.39047 -1.3895,0.50776 -12.7554,24.76213 -17.6541,37.67306 -3.3076,8.71745 -4.1094,11.89789 -3.3549,13.30771 1.4688,2.74444 3.8509,2.24924 5.256,-1.09265 2.4341,-5.78895 36.75,-42.51994 55.2155,-59.10139 10.1819,-9.14303 28.0784,-21.84486 40.4496,-28.70867 3.025,-1.67833 7.3,-4.04626 9.5,-5.26206 2.2,-1.21581 5.8645,-3.29891 8.1433,-4.62911 6.1363,-3.58193 16.3039,-7.35356 19.8238,-7.35356 4.6525,0 7.1742,2.289 7.8192,7.09769 0.74,5.51717 -0.3709,8.04613 -4.4324,10.0904 -1.8447,0.92846 -10.2289,5.06211 -18.6316,9.18591 -15.4821,7.59811 -18.4818,9.50776 -38.5184,24.52105 -27.3411,20.48658 -46.5653,39.05953 -58.2104,56.23853 -2.7464,4.05153 -5.331,7.51642 -5.7435,7.69975 -0.4125,0.18334 -0.75,0.71577 -0.75,1.18319 0,0.46742 -3.1642,5.62498 -7.0315,11.46126 -3.8673,5.83627 -6.7657,11.04134 -6.4409,11.56681 1.2303,1.99074 4.4566,0.81382 8.5497,-3.1189 3.6358,-3.49327 9.1657,-7.33911 30.9227,-21.50585 3.1941,-2.07981 8.0038,-4.41435 21.2391,-10.30912 2.6065,-1.1609 5.3641,-2.11072 6.1279,-2.11072 0.7638,0 2.9444,-0.65 4.8458,-1.44443 4.7417,-1.98123 30.88,-4.88371 38.537,-4.27927 3.4373,0.27135 7.3467,1.21217 8.6876,2.09071 2.8554,1.87097 4.9546,9.38376 3.1567,11.29763 -1.06,1.12833 -13.7471,3.53848 -28.0941,5.33701 -21.8006,2.73289 -38.1568,9.32064 -58.1498,23.42083 -9.0351,6.37211 -24.6925,20.51712 -31.7328,28.6677 -4.1536,4.80868 -14.7437,21.20984 -17.6983,27.40982 -2.0107,4.21929 -6.5141,11.45837 -8.6625,13.92465 -3.3065,3.79574 -10.0226,3.6555 -13.9698,-0.29169 z m 126.4917,-257.03893 c 14.2053,-7.21494 39.0018,-30.10707 46.4633,-42.89494 6.2044,-10.63337 1.4359,-14.29275 -10.8146,-8.29922 -12.2098,5.9736 -29.7197,20.45524 -37.7851,31.25029 -6.4025,8.56939 -10.4186,19.73997 -7.9754,22.18317 1.3186,1.31863 4.4891,0.61651 10.1118,-2.2393 z m -117.2569,-12.94416 c 4.8786,-2.97512 5.8395,-8.82128 5.7774,-35.14987 -0.055,-23.14732 -1.3833,-34.39469 -4.8563,-41.11073 -1.9258,-3.72417 -3.6762,-3.64422 -7.8982,0.36073 -3.2223,3.05667 -3.5188,3.90522 -4.9853,14.26455 -1.9381,13.69144 -1.9724,28.33371 -0.1035,44.18264 2.1194,17.97267 4.8163,21.87368 12.0659,17.45268 z m 90.657,-53.89987 c 6.6409,-6.96436 9.0353,-10.68258 17.432,-27.0702 10.1482,-19.80604 14.703,-35.078 10.8975,-36.53831 -4.358,-1.67233 -15.0472,4.92665 -19.2088,11.85851 -0.6604,1.1 -3.726,6.05 -6.8124,11 -6.5402,10.48914 -6.3092,10.07409 -10.2931,18.5 -6.0229,12.73859 -7.5144,21.30763 -4.4438,25.53047 2.9649,4.07746 6.2355,3.2142 12.4286,-3.28047 z M 179.60935,945.79084 C 172.5823,943.23524 173,946.17617 173,899.25632 v -42.2992 l -2.25,-0.84859 c -1.2375,-0.46673 -5.625,-1.60868 -9.75,-2.53766 -10.09459,-2.27339 -18.653,-5.86764 -32.94904,-13.83749 C 110.07402,829.71147 92.053945,806.6648 85.646138,785.5 83.614336,778.78902 81.798866,764.60931 82.186026,758.47485 L 82.5,753.5 87.312153,752.94714 C 112.39,750.06596 151.79386,767.7811 162.75216,786.86336 166.08106,792.66015 170.4843,798 171.93544,798 172.65831,798 173,790.3757 173,774.24598 v -23.75401 l -10.50059,-2.68971 c -31.47953,-8.06345 -59.83645,-30.76236 -72.412906,-57.96448 -4.752551,-10.27948 -6.013494,-14.7035 -7.631111,-26.77375 -1.754085,-13.08852 -1.37019,-16.23461 2.272213,-18.62121 5.567861,-3.6482 27.911704,0.41644 42.772394,7.78086 13.6232,6.75116 31.04617,21.20555 41.31586,34.27632 4.00805,5.10126 5.14749,3.7698 5.16883,-6.0399 0.0213,-9.80974 -1.89133,-16.1835 -9.32245,-31.06607 -13.61038,-27.25798 -16.5984,-43.18425 -12.55038,-66.89403 1.75285,-10.26668 7.55873,-24.36693 14.52243,-35.26942 C 168.48543,544.3324 170,541.57115 170,541.09447 170,539.54377 181.73622,528 183.31277,528 c 3.42064,0 17.82753,18.21851 22.5539,28.52096 0.75167,1.63847 1.80497,3.82577 2.34067,4.86066 2.35531,4.55008 6.15838,21.07702 7.28422,31.65484 0.69431,6.52347 -1.09134,29.56187 -2.43867,31.46354 -0.38967,0.55 -1.54023,3.25 -2.5568,6 -1.01656,2.75 -4.45169,9.68343 -7.63362,15.40763 -7.07519,12.72806 -9.81463,20.43288 -10.52152,29.59237 -0.52372,6.78591 0.61867,12.5 2.49905,12.5 0.48922,0 4.27404,-3.4875 8.4107,-7.75 13.90963,-14.33277 17.33264,-17.74121 19.7391,-19.65513 5.20332,-4.13832 30.14671,-14.38251 40.5102,-16.63743 2.2,-0.47869 6.50906,-0.88994 9.57569,-0.91389 4.66882,-0.0365 5.9532,0.35829 7.89675,2.42711 2.24343,2.38803 2.30135,2.88139 1.73169,14.75 -1.06849,22.26149 -6.93365,36.33067 -22.20413,53.26272 C 254.42921,720.21472 240.91841,732 239.2723,732 c -0.49235,0 -1.77654,0.82111 -2.85376,1.82469 -2.12804,1.98258 -11.01795,5.50021 -24.48008,9.68649 -4.70885,1.4643 -10.78385,3.86228 -13.5,5.32885 l -4.93846,2.66649 -0.26877,22.74674 C 192.97563,795.8847 193.05394,797 194.82841,797 c 1.02628,0 2.27223,-0.88966 2.76878,-1.97703 1.43146,-3.13469 12.76843,-15.89135 14.18419,-15.96044 0.70477,-0.0344 1.52641,-0.70105 1.82588,-1.48146 0.6871,-1.79055 12.14684,-10.2579 19.39274,-14.32887 13.94068,-7.8323 33.83021,-12.35247 46,-10.45414 l 4.5,0.70194 0.14026,6.5 c 0.18648,8.64251 -3.01456,26.92135 -5.56608,31.78379 -0.49531,0.94392 -2.39688,4.86621 -4.2257,8.71621 -4.65625,9.8022 -8.93128,15.91921 -16.6671,23.8484 -6.16884,6.32305 -14.86,13.52353 -19.68138,16.3057 -10.99457,6.34439 -25.49298,11.96354 -37,14.34009 -3.3,0.68155 -6.33061,1.74917 -6.73469,2.3725 -0.40408,0.62332 -0.74158,20.76456 -0.75,44.75831 L 193,945.75 l -3.125,0.625 c -4.158,0.8316 -6.78358,0.68219 -10.26565,-0.58416 z M 161.69672,826.92249 C 160.00847,806.78503 138.25158,782.58748 115.10078,775.09946 113.2312,774.49476 109.7437,774 107.35078,774 c -5.4637,0 -5.57965,1.17679 -1.16458,11.81952 5.62118,13.55009 9.14214,18.65056 20.83419,30.18048 7.70238,7.59557 17.89829,13.82483 26.42909,16.14704 9.37103,2.55093 8.92291,2.83481 8.24724,-5.22455 z M 215.45,830.86183 C 215.9725,830.38782 217.02949,830 217.79887,830 c 6.61371,0 25.0484,-14.32579 32.96127,-25.61455 C 256.10543,796.7597 263,780.98132 263,776.37427 c 0,-2.01314 -0.49433,-2.37342 -3.25,-2.36869 -8.58588,0.0147 -23.16347,6.88938 -32.23481,15.20162 -10.08762,9.24347 -16.50566,18.99846 -20.25933,30.7928 -4.16386,13.08323 -3.84792,14.41584 3.02239,12.74833 2.32196,-0.56357 4.64925,-1.41249 5.17175,-1.8865 z M 161.67594,719.91164 c -0.69322,-5.85315 -6.55642,-16.79017 -16.08098,-29.99691 -4.12362,-5.71781 -15.27057,-16.07171 -19.75823,-18.35254 C 119.69478,668.44058 111.63253,666 107.46249,666 103.10057,666 103,666.07276 103,669.22879 c 0,7.62838 8.24089,24.18118 17.06209,34.27121 7.97936,9.12711 12.2996,12.46365 22.43791,17.32894 6.98742,3.3532 9.29672,3.98679 14.88929,4.08511 L 162.27858,725 Z M 221,721.92474 c 14.3824,-5.48137 27.05046,-17.13704 34.04486,-31.32409 4.15765,-8.43315 7.58161,-22.33974 5.91588,-24.0277 -2.12898,-2.1574 -17.85886,3.57229 -26.92152,9.8063 -7.59079,5.22155 -11.70884,9.48725 -17.37663,17.99966 C 210.82562,703.14541 205,716.99518 205,722.10542 v 3.16994 l 5.25,-0.62724 c 2.8875,-0.34498 7.725,-1.5705 10.75,-2.72338 z m -34.77379,-83.88803 c 2.94661,-2.31781 6.35883,-9.80212 8.90709,-19.53671 3.27136,-12.49685 2.24382,-35.7244 -2.03494,-46 -3.98554,-9.57142 -7.47607,-15.5 -9.12583,-15.5 -3.88269,0 -9.99479,11.99003 -12.86479,25.23669 -2.63194,12.14788 -2.69126,23.69945 -0.18146,35.33386 2.42437,11.23836 4.45128,16.04559 8.26919,19.61204 3.58725,3.351 3.82045,3.37933 7.03074,0.85412 z m 231.87937,307.88128 c -3.51694,-0.45562 -8.4346,-1.52356 -10.92814,-2.3732 C 404.68389,942.69516 402.08015,942 401.39133,942 399.36179,942 380.96879,932.88396 375,928.91978 358.83201,918.1818 339.84476,898.61589 330.82971,883.40332 c -1.83134,-3.09031 -4.11053,-6.80778 -5.06486,-8.26103 -0.95434,-1.45326 -2.15167,-3.54229 -2.66074,-4.64229 -9.50613,-20.54075 -11.66949,-26.40412 -15.3119,-41.5 -2.27349,-9.42241 -2.29216,-10.05128 -2.28631,-77 0.003,-37.125 0.13722,-109.125 0.29772,-160 0.16049,-50.875 0.16253,-98.575 0.005,-106 -0.29507,-13.86661 1.10307,-24.32061 3.84509,-28.75 1.10507,-1.78511 2.30816,-2.25 5.82276,-2.25 4.8225,0 9.51927,1.68048 9.53205,3.41052 0.004,0.59921 0.006,81.86448 0.004,180.58948 -0.003,117.74085 0.34822,181.7364 1.0207,186 1.17317,7.43788 4.50118,19.85346 6.70128,25 4.02565,9.41687 11.66598,23.21645 14.74549,26.63254 0.56153,0.6229 2.59596,3.09408 4.52096,5.49151 16.7306,20.83658 45.3895,38.39355 70.75,43.34278 4.44256,0.86698 6.24152,0.90355 6.22069,0.12644 -0.0405,-1.5101 -4.34989,-6.07969 -11.87619,-12.59327 -14.04779,-12.15754 -29.38333,-35.83644 -36.91582,-57 -6.02478,-16.92747 -8.32699,-30.26162 -8.43356,-48.84648 -0.19879,-34.66441 11.70325,-71.33917 35.37622,-109.00767 C 410.3546,693.00107 413,688.42607 413,687.97919 c 0,-0.44689 0.3637,-0.96252 0.80821,-1.14586 0.44452,-0.18333 2.31727,-2.58333 4.16167,-5.33333 7.6285,-11.3741 28.79111,-38.35472 34.96499,-44.57753 0.86082,-0.86765 4.26513,-4.6674 7.56513,-8.44391 3.3,-3.7765 8.25,-9.39835 11,-12.49299 2.75,-3.09465 7.29936,-8.29489 10.10969,-11.5561 2.81034,-3.26121 8.45022,-9.75447 12.53307,-14.42947 8.35096,-9.56211 21.82809,-25.63624 26.35724,-31.43618 1.65,-2.11296 3.45931,-4.34171 4.02069,-4.95278 C 527.14123,550.75853 542.04292,529.70073 546.18278,523 554.42173,509.66452 560,495.5858 560,488.12738 c 0,-1.68564 -1.4058,-8.10063 -3.12399,-14.25552 -2.82901,-10.13405 -3.07575,-12.14351 -2.61312,-21.28129 0.47964,-9.47379 4.95572,-30.11285 7.71339,-35.56616 0.56305,-1.11342 1.47372,-2.9183 2.02372,-4.01084 0.55,-1.09254 1.00066,-2.55504 1.00146,-3.25 0.002,-1.64465 13.69069,-28.76592 15.56322,-30.83505 0.78943,-0.8723 1.43532,-1.87743 1.43532,-2.23361 0,-1.09834 8.61125,-13.79763 14.70906,-21.69194 8.85289,-11.46108 20.5527,-23.20724 28.5629,-28.67607 27.78829,-18.97199 90.18229,-23.18849 120.52163,-8.14468 6.62534,3.28519 13.42434,9.37958 19.2282,17.2355 15.76183,21.33471 16.11735,21.56974 37.15714,24.5634 7.87659,1.12072 15.89607,2.46831 17.82107,2.99463 1.925,0.52632 10.25,2.77471 18.5,4.99641 17.83682,4.80341 22.82762,7.0885 24.86073,11.38277 4.09335,8.64584 2.83772,24.6762 -3.5753,45.64507 -9.88967,32.33662 -33.72839,48.69818 -77.28543,53.04437 -17.8323,1.77934 -22.18071,2.65776 -27.64084,5.58375 -5.83217,3.12536 -7.95975,6.31433 -10.44786,15.65999 -1.6704,6.27428 -1.82937,24.11651 -0.33448,37.54145 1.05392,9.46472 6.06261,37.23379 7.96701,44.17044 2.28397,8.31921 4.05022,24.55131 4.13486,38 0.15752,25.02493 -3.78917,40.62845 -20.48779,81 -12.29954,29.73608 -14.06271,34.41711 -19.05688,50.59409 -0.86496,2.80175 -2.31504,10.67675 -3.22241,17.5 -1.42752,10.73472 -1.53268,17.18807 -0.78068,47.90591 0.47799,19.525 0.72827,41.8892 0.55618,49.69822 -0.18121,8.2224 0.10889,14.98634 0.68924,16.07073 0.55117,1.02988 2.94197,2.71995 5.31289,3.75573 11.37214,4.96809 24.62187,17.2109 30.43746,28.12435 4.89427,9.18451 6.51053,25.1446 3.2002,31.60097 -0.84942,1.65667 -9.62825,1.74324 -164.61208,1.6232 -90.04315,-0.0697 -166.59231,-0.49959 -170.10924,-0.95521 z M 606.5,929.48265 c 12.65,-0.81647 25.025,-1.91448 27.5,-2.44002 2.475,-0.52554 6.8625,-0.97513 9.75,-0.99908 4.34668,-0.0361 5.23691,-0.34466 5.17392,-1.79355 -0.22466,-5.16783 -4.86118,-12.19711 -10.46873,-15.87132 -1.21801,-0.79807 -5.3062,-2.41768 -9.08487,-3.59913 -5.89037,-1.8417 -9.43777,-2.16227 -24.87032,-2.24752 -9.9,-0.0547 -18.5625,-0.44832 -19.25,-0.87475 -1.64654,-1.02127 -1.58542,-4.10854 0.14762,-7.45694 1.35944,-2.62656 4.40804,-5.72729 21.17098,-21.53294 7.1119,-6.70575 8.73755,-8.94527 13.71044,-18.88761 9.45291,-18.89928 12.12713,-29.92281 12.07619,-49.77979 -0.0426,-16.59355 -1.31036,-22.65272 -7.45893,-35.64852 -9.41764,-19.90542 -31.1279,-35.92457 -54.21568,-40.00363 -21.23397,-3.75153 -38.45907,2.7218 -50.44289,18.95685 -2.92115,3.95741 -6.19465,8.24603 -7.27445,9.53025 -1.07981,1.28422 -1.97742,2.63422 -1.9947,3 -0.0455,0.96223 -4.10956,3.76196 -6.60904,4.55293 -1.60284,0.50723 -2.92147,-0.10365 -5.25,-2.43218 -3.72074,-3.72075 -3.84587,-5.85381 -0.73069,-12.4557 3.35893,-7.11847 7.86398,-12.32771 12.82794,-14.83313 2.73023,-1.378 5.93147,-4.37353 8.79321,-8.22816 2.475,-3.3337 5.4,-6.54155 6.5,-7.12855 13.44768,-7.17611 22.96596,-9.37761 40.76111,-9.4277 11.54507,-0.0325 14.1465,0.27808 20.33275,2.42746 10.82063,3.75957 21.36455,9.22076 26.9059,13.93584 8.19714,6.97485 15.60099,15.04932 15.06947,16.43442 -0.27349,0.7127 0.0239,1.18873 0.66087,1.05782 0.63697,-0.1309 3.32356,3.362 5.97019,7.762 14.57682,24.23377 19.10492,53.11042 12.85396,81.97231 -2.1782,10.05719 -6.41048,19.53847 -13.85022,31.02769 C 629.1904,873.78687 625,881.78984 625,883.988 c 0,1.33961 1.08492,1.94761 4.3487,2.43704 9.17252,1.3755 19.62944,6.71088 26.70089,13.62343 5.54551,5.42091 11.91485,16.40714 13.34004,23.00974 0.4437,2.05554 1.60677,2.89063 5.91918,4.25 4.45653,1.4048 9.69949,1.69179 30.90664,1.69179 29.38566,0 29.02899,0.10047 26.45545,-7.45247 -3.2215,-9.45456 -10.90393,-15.39914 -21.95915,-16.99175 -7.29501,-1.05092 -11.34412,-3.12646 -13.23485,-6.78407 -3.77086,-7.29473 -5.83106,-39.12743 -5.16277,-79.77171 0.83208,-50.60646 4.84657,-72.86333 19.48004,-108 16.61076,-39.88436 19.84069,-48.84009 23.6331,-65.52811 3.30821,-14.55738 2.9364,-38.18607 -0.93584,-59.47189 -0.85046,-4.675 -2.16232,-11.875 -2.91524,-16 -8.88285,-48.66581 -9.86317,-58.77259 -7.10089,-73.20799 1.89775,-9.91743 4.72746,-15.83687 10.17449,-21.2839 8.07641,-8.07641 19.12229,-11.65942 47.85021,-15.52141 29.5846,-3.97716 38.15852,-7.96881 49.37464,-22.9867 1.43769,-1.925 2.8706,-3.725 3.18425,-4 0.49434,-0.43342 6.43081,-12.68314 8.9655,-18.5 2.19172,-5.02979 3.1404,-13.64462 2.01785,-18.32392 -1.93702,-8.07439 -6.07188,-9.93506 -31.54224,-14.19387 -25.95375,-4.33964 -29.93629,-5.13515 -35.86119,-7.1632 -3.37635,-1.1557 -7.37029,-2.96412 -8.87543,-4.01871 -2.68615,-1.88207 -11.06764,-12.13451 -11.86017,-14.50765 -0.76507,-2.29089 -9.4144,-11.99313 -13.48413,-15.12557 -14.49133,-11.15391 -45.77259,-15.84367 -70.73245,-10.60438 -6.88241,1.44468 -15.1213,4.71356 -16.1743,6.41734 -0.27431,0.44385 0.20872,2.76742 1.0734,5.16348 14.47032,40.09776 17.52675,83.08926 8.35566,117.52988 -6.40734,24.06176 -18.06125,40.40182 -32.94139,46.18746 -10.63197,4.13388 -31.46685,4.20969 -46,0.16738 -14.10384,-3.9229 -13.2175,-4.10378 -15.42519,3.14796 -1.05886,3.47809 -2.26686,6.9988 -2.68446,7.8238 -0.41759,0.825 -3.01871,6.225 -5.78027,12 -2.76156,5.775 -7.12699,13.65 -9.70096,17.5 -4.60787,6.89219 -17.41361,24.27057 -19.72552,26.76907 C 529.58252,577.78183 523,586.03673 523,586.92104 523,587.51447 522.65242,588 522.2276,588 c -0.62752,0 -7.73692,7.72702 -20.2276,21.98485 -0.825,0.94171 -4.03226,4.59287 -7.12726,8.11368 -3.09499,3.52081 -7.51492,8.65147 -9.82206,11.40147 -2.30715,2.75 -6.29989,7.43546 -8.87275,10.41213 C 446.20614,674.588 422.30809,709.06592 408.88239,737 c -3.30427,6.875 -6.35834,13.175 -6.78682,14 -1.19019,2.2916 -7.65063,23.55443 -9.72279,32 -2.73076,11.12985 -2.53484,40.31508 0.34571,51.5 4.52544,17.57187 10.26031,29.63688 21.92954,46.13534 20.07008,28.37592 53.16227,44.25955 101.79108,48.85779 18.44766,1.74437 62.95219,1.73919 90.06089,-0.0105 z M 627.38224,486.35198 C 639.4839,481.76146 646.87759,469.79739 651.70143,447 c 2.46777,-11.66262 2.40794,-42.85776 -0.1122,-58.5 -3.21971,-19.98439 -9.00467,-40.74155 -12.49751,-44.84262 -3.41847,-4.01376 -4.63458,-3.87033 -9.44399,1.11383 -5.89702,6.11129 -16.58525,19.4373 -16.62568,20.72879 -0.0172,0.55 -1.37922,2.43809 -3.02668,4.19577 -1.64745,1.75767 -2.99537,3.41335 -2.99537,3.67928 0,0.26594 -1.9125,3.2742 -4.25,6.68503 -2.3375,3.41083 -4.74435,6.93015 -5.34856,7.82071 -5.86481,8.64431 -12.17446,19.93196 -15.15928,27.11921 -0.57103,1.375 -1.73345,4.08891 -2.58316,6.03092 -4.3071,9.84392 -6.12298,19.31977 -6.12632,31.96908 -0.003,11.02468 0.26761,13.04803 2.29199,17.14331 4.3058,8.71055 13.74705,15.67423 24.17533,17.83124 6.81723,1.4101 21.71463,0.52733 27.38224,-1.62257 z m 453.93416,457.18525 c -1.4246,-2.98727 -1.4835,-4.21254 -0.4294,-8.92273 0.672,-3.00297 1.8434,-5.97579 2.6031,-6.60628 0.8967,-0.74422 7.2794,-1.20981 18.1956,-1.32728 L 1118.5,926.5 1118.409,896 c -0.089,-29.75509 -0.1554,-30.73202 -2.73,-40 -1.4514,-5.225 -2.938,-10.625 -3.3034,-12 -0.3655,-1.375 -0.9874,-2.95 -1.3821,-3.5 -0.3948,-0.55 -1.0331,-2.35 -1.4185,-4 -0.3854,-1.65 -4.3307,-11.73519 -8.7674,-22.41152 -10.0423,-24.16563 -14.3979,-37.63658 -16.3152,-50.45972 -1.9476,-13.02551 -1.8552,-20.71627 0.41,-34.12876 1.8832,-11.15014 2.2174,-12.44675 4.7047,-18.25 3.3968,-7.92541 4.225,-9.92998 5.2677,-12.75 0.964,-2.60722 5.0899,-21.73787 5.1158,-23.7207 0.011,-0.82559 -8.1278,-4.69448 -15.4906,-7.36386 -2.75,-0.99702 -5.225,-2.06086 -5.5,-2.3641 -0.275,-0.30324 -2.7366,-1.60612 -5.4701,-2.89528 -15.3938,-7.25984 -30.0503,-20.47626 -36.0855,-32.53987 -5.2405,-10.47518 -4.9534,-11.69239 5.4503,-23.10274 4.6905,-5.14447 7.7253,-9.81155 11.3881,-17.51345 9.2769,-19.50708 10.0428,-21 10.7723,-21 0.4005,0 0.9985,-1.0125 1.3289,-2.25 0.7695,-2.88146 8.6952,-11.20098 15.1268,-15.87838 6.4062,-4.65891 15.6325,-9.27588 24.074,-12.04703 9.2681,-3.04251 9.8654,-4.60633 9.1,-23.82459 -0.6748,-16.94642 0.095,-23.07259 3.334,-26.52003 3.0649,-3.26237 5.9531,-3.12829 13.3575,0.62008 7.9259,4.01242 12.548,7.75237 26.9817,21.83247 15.9968,15.60483 27.2443,28.86583 37.3765,44.06748 9.7451,14.62105 11.4916,19.38202 17.7917,48.5 7.2757,33.62677 15.0882,44.45007 52.3553,72.53164 17.7958,13.40953 38.7834,37.73618 51.0191,59.13599 3.3547,5.86719 6.0994,10.90949 6.0994,11.2051 0,0.29561 1.3012,3.37017 2.8916,6.83237 11.9387,25.99004 15.6521,54.95952 10.5712,82.46906 -4.1315,22.36954 -16.7293,48.21257 -26.681,54.73315 -2.3363,1.53079 -2.9397,1.55355 -6.1066,0.23033 -7.7356,-3.23211 -7.3191,-9.01584 1.9528,-27.12255 7.6824,-15.00263 8.796,-18.2558 11.4099,-33.33141 2.3507,-13.55754 2.464,-22.32723 0.4686,-36.25754 -2.1358,-14.91031 -4.5067,-22.87326 -12.1859,-40.92614 -0.8188,-1.925 -1.9819,-4.4 -2.5847,-5.5 -13.6463,-24.90325 -24.5576,-37.34258 -50.8715,-57.99517 -9.023,-7.08177 -25.7114,-21.6605 -29.9677,-26.17929 -4.9666,-5.27287 -11.8872,-14.57933 -11.8924,-15.99221 -0,-0.64166 -0.3779,-1.31666 -0.8346,-1.5 -0.9193,-0.36907 -7.1697,-13.27322 -7.1697,-14.80207 0,-0.52987 -0.7374,-2.66617 -1.6386,-4.74733 -2.7678,-6.39153 -3.1231,-7.41036 -6.8996,-19.78393 -11.092,-36.34307 -20.139,-54.23077 -35.3169,-69.82873 C 1149.5949,526.88474 1136.6332,516 1134.7201,516 c -2.0701,0 -2.3636,1.77649 -2.6239,15.88614 -0.1576,8.54323 -0.6587,13.04198 -1.6152,14.5 -1.748,2.66464 -6.5457,5.10227 -12.981,6.59557 -6.9634,1.61582 -12.426,4.17085 -20.5026,9.58966 -11.2754,7.56499 -16.0494,14.64173 -28.9596,42.92863 -1.7572,3.85 -4.5645,9.15006 -6.2385,11.7779 -2.9346,4.60682 -2.9976,4.94207 -1.7599,9.36266 2.6479,9.45755 12.6011,16.14759 37.7808,25.39449 16.3476,6.00342 20.1873,8.23882 21.411,12.46495 0.9423,3.2548 0.2091,16.1624 -1.1929,21 -2.091,7.21448 -7.3557,24.19569 -8.1386,26.25074 -2.0794,5.45805 -4.8583,18.52491 -5.833,27.42796 -1.1887,10.85813 -0.048,26.50612 2.6117,35.8213 1.7323,6.06741 10.2158,27.96088 12.6842,32.73436 5.9365,11.47983 13.9924,39.21625 15.6161,53.76564 0.491,4.4 1.4154,12.275 2.0541,17.5 0.7153,5.85079 0.9974,18.52699 0.7345,33 -0.4895,26.95327 -0.8568,28.53317 -7.7398,33.29092 -2.1513,1.48706 -5.3686,1.70908 -24.7662,1.70908 h -22.2937 z m 154.1139,2.48479 c -8.382,-1.18947 -16.667,-3.70355 -24.9303,-7.56514 -6.482,-3.02913 -8.714,-4.48911 -18.5965,-12.16384 -5.0616,-3.93089 -14.5291,-15.68839 -18.3535,-22.79304 -5.8406,-10.85014 -7.0555,-16.40292 -7.0015,-32 0.044,-12.60816 0.3214,-14.78531 2.793,-21.89916 3.7528,-10.80126 9.5852,-20.42555 17.395,-28.70439 7.6831,-8.14453 12.3227,-11.44748 23.541,-16.75907 12.0538,-5.70716 24.1759,-7.76805 36.1226,-6.14123 10.5148,1.43184 16.8364,4.03283 18.4595,7.59503 1.4973,3.28632 1.4407,4.49954 -0.3803,8.14996 -2.4037,4.81825 -3.925,5.63309 -8.7389,4.68061 -2.3322,-0.46146 -10.7654,-0.85763 -18.7404,-0.88038 -14.0762,-0.0402 -14.6683,0.0439 -20.257,2.87571 -3.1664,1.60439 -7.2164,4.23374 -9,5.84301 -1.7837,1.60926 -3.9301,3.44658 -4.77,4.08292 -3.43,2.599 -9.2468,10.88991 -13.1741,18.77774 -3.7124,7.45628 -4.2196,9.33417 -4.6039,17.04853 -0.3206,6.43429 0.024,10.17248 1.3379,14.5 5.6129,18.49182 20.0803,34.82601 37.3962,42.22163 18.3994,7.85838 51.7977,5.24665 77.0709,-6.02689 4.5889,-2.04697 5.5507,-2.53741 11.887,-6.0616 11.215,-6.23765 24.4573,-17.73002 36.1344,-31.35945 2.8526,-3.32949 8.9786,-12.25982 8.9786,-13.08873 0,-0.30003 0.8172,-1.73997 1.816,-3.19987 2.7754,-4.05677 8.9595,-19.73424 11.2053,-28.40678 2.6752,-10.33087 3.8129,-20.9037 5.0842,-47.24759 1.1561,-23.9583 0.4815,-101.64319 -1.1563,-133.1589 -4.1942,-80.70348 -3.9346,-168.46753 0.5628,-190.29675 1.57,-7.62059 3.1009,-9.04435 9.7246,-9.04435 3.8905,0 5.3689,0.51461 7.4462,2.59193 2.4807,2.48064 2.5634,2.92075 1.9265,10.25 -1.1549,13.29074 -1.6097,95.73361 -0.6519,118.15807 0.5051,11.825 1.4482,50.75 2.0959,86.5 2.0102,110.968 -0.6778,153.80696 -11.5143,183.5 -9.6615,26.47387 -30.0736,51.18788 -55.539,67.24438 -6.7112,4.23158 -21.2294,11.82281 -26,13.59486 -7.6291,2.83383 -19.0339,6.27637 -25.5933,7.72533 -8.1756,1.80598 -33.3588,2.68036 -41.9764,1.45745 z m -332.5758,-2.98059 c -94.20906,-0.52238 -97.71956,-0.60847 -99.75,-2.44642 -6.57246,-5.94937 2.26532,-29.97149 16.12851,-43.83914 l 6.74195,-6.74414 -1.4311,-6.75586 C 823.75675,879.54014 822.00358,873.125 820.64793,869 c -9.58804,-29.1747 -13.61108,-46.76117 -13.61108,-59.5 0,-7.91489 2.32791,-20.77286 5.48729,-30.30851 C 816.61531,766.84354 818,762.2992 818,761.22059 c 0,-0.55604 -2.33225,-2.23048 -5.18278,-3.72098 -2.85052,-1.4905 -6.33802,-3.49049 -7.75,-4.44442 -1.41197,-0.95392 -5.71722,-3.76105 -9.56722,-6.23804 -18.78011,-12.08268 -28.72241,-26.70523 -27.16583,-39.9539 1.40821,-11.98576 17.18703,-36.29043 35.66332,-54.93346 9.57483,-9.66123 16.71449,-14.42202 25.50227,-17.00511 3.85013,-1.13171 8.11307,-2.60067 9.47319,-3.26434 2.68058,-1.30798 2.94814,-2.28074 4.99501,-18.16034 0.63805,-4.95 1.78759,-13.05 2.55454,-18 0.76695,-4.95 1.67796,-11.025 2.02448,-13.5 2.28059,-16.28897 9.85066,-39.60678 17.36865,-53.5 7.51755,-13.8924 9.48259,-17.16245 16.47809,-27.4215 12.8497,-18.84433 20.03503,-25.09394 28.81644,-25.06376 7.91122,0.0272 10.52451,2.63484 13.43104,13.40207 2.29524,8.50271 4.3588,24.09586 4.3588,32.93704 0,15.89956 1.64114,20.63955 6.0317,17.42093 0.95642,-0.70113 5.95305,-4.44839 11.10362,-8.32724 17.97987,-13.54048 31.67608,-21.72986 42.77123,-25.57422 6.57155,-2.27698 9.30124,-2.34308 13.54755,-0.32806 2.3552,1.11762 3.5733,2.60266 4.4012,5.36602 1.3704,4.57393 1.486,13.60714 0.2482,19.3959 -0.4931,2.30605 -1.6654,7.79282 -2.6052,12.19282 -0.9397,4.4 -2.5123,10.475 -3.4945,13.5 -0.9823,3.025 -2.34339,7.525 -3.02471,10 -1.56535,5.68631 -13.88118,31 -15.08239,31 -0.49318,0 -0.8967,0.43733 -0.8967,0.97185 0,2.03648 -23.49129,31.60287 -29.41986,37.02815 -1.50256,1.375 -3.71027,3.43122 -4.90603,4.56939 -1.19576,1.13816 -5.32411,4.73816 -9.17411,8 -14.48527,12.27236 -16.04816,15.04604 -15.04899,26.70764 0.99994,11.67057 3.05431,21.70229 5.70725,27.86922 4.39992,10.22788 14.18209,18.44582 47.43968,39.85375 22.7719,14.65829 35.83506,29.15439 46.48736,51.58685 5.8835,12.3901 7.5536,17.33513 10.0111,29.64286 1.756,8.79432 1.8835,9.91259 2.3109,20.27029 0.227,5.5 0.4532,10.67765 0.5027,11.50589 0.049,0.82824 1.354,2.06538 2.8988,2.7492 1.5449,0.68381 5.218,3.29971 8.1625,5.8131 22.6308,19.31727 25.423,48.70672 6.3546,66.88629 -10.7403,10.2397 -20.8397,13.57094 -40.3259,13.30133 -6.875,-0.0951 -56.44047,-0.41659 -110.1455,-0.71438 z m 81.93,-18.88493 49.2845,-0.72419 4.2545,-4.46615 c 11.765,-12.35026 10.9426,-29.48969 -1.8816,-39.21312 -2.7181,-2.06083 -6.2923,-4.39126 -7.9428,-5.17874 -1.6506,-0.78747 -4.8006,-2.98729 -7,-4.88848 l -3.9991,-3.45671 -0.6453,-18.86456 c -0.6605,-19.30651 -1.9236,-26.17465 -7.5888,-41.26394 -4.3809,-11.66863 -14.54279,-26.69218 -22.72733,-33.60061 -2.60638,-2.2 -5.7063,-4.85043 -6.88872,-5.88985 -2.33547,-2.05301 -22.28976,-15.17029 -30.8449,-20.27639 -21.07486,-12.57844 -34.2985,-27.71625 -39.16456,-44.83376 -0.9381,-3.3 -2.17838,-7.48543 -2.75617,-9.30096 -0.57779,-1.81553 -1.50163,-6.09053 -2.05296,-9.5 -0.55134,-3.40947 -1.37434,-8.44904 -1.8289,-11.19904 -2.1891,-13.24377 2.73844,-22.04772 20.32125,-36.30762 16.12218,-13.07531 21.09031,-18.20348 32.41944,-33.46377 12.70748,-17.11693 19.15925,-28.67873 25.59494,-45.86704 4.16874,-11.13378 8.07118,-26.3905 7.13695,-27.90212 -1.09522,-1.7721 -6.52995,-0.0523 -13.01712,4.11927 -3.3232,2.13697 -6.9232,4.68804 -8,5.66906 -1.0768,0.98101 -3.28194,2.80948 -4.90031,4.06327 -9.01925,6.98742 -29.41246,26.60117 -36.16074,34.7786 -1.8562,2.24931 -9.74762,16.87431 -17.5365,32.5 -7.78887,15.62569 -15.30298,29.64785 -16.69802,31.16035 -3.54954,3.84841 -8.2909,3.78244 -11.09416,-0.15437 C 879.93064,638.49823 879,636.20068 879,634.98997 c 0,-3.53427 2.88687,-13.68336 5.54544,-19.4956 1.35001,-2.95142 2.45456,-5.65015 2.45456,-5.99717 0,-1.48695 9.48915,-20.10586 11.16222,-21.9017 C 899.173,586.51056 900,585.03273 900,584.31144 900,583.59015 900.37777,583 900.83948,583 c 2.33647,0 7.80528,-16.32647 9.21178,-27.50065 1.62167,-12.88366 0.89395,-46.20768 -1.0755,-49.24935 -3.06805,-4.73838 -6.93126,-1.7114 -16.83714,13.1926 -3.79828,5.71475 -11.28669,19.74087 -12.88917,24.142 -0.58384,1.60347 -2.49381,6.7404 -4.24438,11.4154 -1.75058,4.675 -3.57368,10.075 -4.05135,12 -5.49207,22.13315 -6.00217,25.35599 -7.42159,46.89016 -1.69236,25.67486 -1.31824,24.63861 -11.03213,30.55705 -2.2,1.3404 -6.925,3.82797 -10.5,5.52792 -3.575,1.69995 -7.49608,3.63848 -8.7135,4.30784 -1.21743,0.66937 -4.72224,2.53687 -7.78847,4.15001 -3.06623,1.61314 -6.8812,4.31314 -8.4777,6 C 802.34647,679.93732 787,704.26515 787,712.0224 c 0,2.68391 0.89686,4.66538 3.47491,7.67726 4.45948,5.20989 9.50915,8.40362 28.44759,17.99203 9.31521,4.71623 16.18579,8.84679 17.35,10.43073 3.13192,4.26108 2.59195,12.61801 -1.54454,23.90426 -4.68175,12.77396 -5.50701,16.47133 -6.80035,30.46735 -1.73268,18.75039 -0.77796,24.63655 8.63798,53.25593 7.73102,23.4981 10.43441,34.11939 10.43441,40.9954 0,7.01328 -0.48321,7.57832 -10.5,12.27803 -8.48441,3.98075 -13.98998,9.21916 -12.38701,11.78592 0.58832,0.94205 3.13604,2.39056 5.6616,3.21891 4.99131,1.63708 49.80558,1.67416 155.00991,0.12828 z M 195.78178,457.93768 c -0.94503,-0.55082 -2.44214,-2.52704 -3.32693,-4.39159 -1.30351,-2.74693 -1.38121,-3.83175 -0.40959,-5.71809 2.07916,-4.03655 6.25411,-7.8746 12.45474,-11.44972 7.82242,-4.51019 9.89259,-5.76923 10.5,-6.38591 0.275,-0.27919 2.75,-1.71246 5.5,-3.18503 2.75,-1.47257 17.825,-10.40503 33.5,-19.8499 15.675,-9.44488 29.85,-17.96659 31.5,-18.93715 4.16004,-2.447 16.47555,-9.92002 25.85534,-15.68895 9.59216,-5.89955 10.77652,-6.62444 28.76819,-17.60749 C 348.03059,349.89697 355.175,345.51119 356,344.97767 362.46311,340.79807 380.15488,330 380.53972,330 c 0.26444,0 2.61368,-1.48185 5.22054,-3.29301 2.60686,-1.81115 8.33974,-5.42494 12.73974,-8.03065 4.4,-2.60571 12.20764,-7.42385 17.35031,-10.70699 5.14267,-3.28314 9.51702,-5.96935 9.72077,-5.96935 0.20374,0 2.2961,-1.30471 4.64968,-2.89935 4.14634,-2.80931 27.62821,-17.54539 34.42052,-21.60065 5.57753,-3.32999 36.22551,-22.4372 46.38861,-28.92057 11.49982,-7.33611 10.81363,-6.90938 24.47011,-15.21747 6.05,-3.68059 14.6,-9.01146 19,-11.84637 13.43551,-8.65648 31.60836,-20.07739 39.24528,-24.6641 3.98491,-2.39332 14.09205,-8.62649 22.46032,-13.85149 8.36827,-5.225 15.68289,-9.72551 16.25472,-10.00114 0.57182,-0.27563 4.30678,-2.63813 8.29991,-5.25 3.99312,-2.61187 7.55065,-4.74886 7.90561,-4.74886 0.35496,0 2.12033,-1.125 3.92305,-2.5 1.80272,-1.375 3.55738,-2.5 3.89926,-2.5 0.34187,0 3.27221,-1.8 6.51185,-4 3.23964,-2.2 6.18299,-4 6.54076,-4 0.35777,0 1.86509,-0.86486 3.34958,-1.92192 3.3701,-2.39972 28.04495,-17.47578 34.10966,-20.84062 2.475,-1.37319 5.175,-3.04354 6,-3.7119 0.825,-0.66835 4.2,-2.73168 7.5,-4.58517 3.3,-1.85349 8.475,-5.00326 11.5,-6.9995 3.025,-1.99623 6.71722,-4.26207 8.20494,-5.0352 1.48772,-0.77313 8.91272,-5.14164 16.5,-9.70781 C 764.29222,92.631715 771.175,88.500745 772,88.017947 772.825,87.53515 781.01153,82.608604 790.19228,77.070067 799.37304,71.53153 807.15376,67 807.48278,67 c 0.32901,0 2.04248,-0.983175 3.80771,-2.184833 8.5284,-5.805605 12.23139,-7.96575 27.37664,-15.970216 C 843.70906,46.180228 848.78439,44 849.94565,44 c 2.40507,0 9.59665,3.500326 22.38322,10.894484 C 877.18474,57.702518 881.57224,60 882.07887,60 882.58549,60 883,60.45 883,61 c 0,0.55 0.43824,1 0.97387,1 1.04513,0 17.20756,9.538611 41.74413,24.636211 C 934.0879,91.786295 941.3629,96 941.88466,96 c 0.52177,0 1.09867,0.3375 1.28201,0.75 0.38672,0.870117 6.4835,5.25 7.30798,5.25 0.3056,0 5.38632,3.08633 11.29049,6.85851 5.90417,3.77218 15.35117,9.73468 20.99332,13.25 5.64216,3.51532 14.41716,8.986 19.50004,12.15708 5.0828,3.17107 11.2665,6.96178 13.7415,8.42379 2.475,1.46201 8.1889,5.05499 12.6975,7.98441 4.5087,2.92942 8.4678,5.32621 8.7981,5.32621 0.3303,0 2.9677,1.4625 5.8609,3.25 5.8661,3.62424 5.7943,3.58017 17.6435,10.82678 4.675,2.85908 10.075,6.19609 12,7.41558 1.925,1.21949 7.775,4.82187 13,8.0053 5.225,3.18342 12.495,7.74876 16.1555,10.14519 3.6605,2.39643 6.9183,4.35715 7.2397,4.35715 0.3214,0 3.6264,1.94708 7.3446,4.32683 3.7181,2.37976 14.8602,9.20412 24.7602,15.16524 9.9,5.96113 22.0636,13.35155 27.0303,16.42317 4.9666,3.07162 9.9166,6.12195 11,6.77851 1.0833,0.65656 6.2171,3.80656 11.4085,7 5.1913,3.19344 11.2663,6.8749 13.5,8.18102 2.2336,1.30613 5.1344,3.21863 6.4461,4.25 1.3116,1.03138 2.8042,1.87523 3.3167,1.87523 0.5125,0 2.3643,1.01363 4.1151,2.25251 1.7508,1.23888 4.0833,2.78232 5.1833,3.42985 1.1,0.64754 6.95,4.19563 13,7.88465 16.8952,10.30191 24.7455,15.04312 35.5,21.44021 1.925,1.14505 6.5179,3.97436 10.2064,6.28734 3.6885,2.31299 12.9135,7.99343 20.5,12.6232 7.5865,4.62977 15.6747,9.69227 17.9738,11.25 2.2991,1.55773 4.4307,2.83224 4.7369,2.83224 0.3062,0 5.8928,3.34584 12.4147,7.43521 6.5219,4.08937 13.73,8.41097 16.0181,9.60357 2.288,1.1926 4.3806,2.52515 4.6501,2.96122 0.2695,0.43607 2.3093,1.74111 4.5328,2.90009 2.2236,1.15897 7.0633,4.05768 10.755,6.44156 3.6917,2.38389 9.6532,6.09474 13.2478,8.24634 7.9132,4.73661 8.9716,5.38067 15.9644,9.71418 17.0367,10.55791 33.0573,20.30406 37,22.50911 2.475,1.38419 5.625,3.28542 7,4.22496 1.375,0.93953 4.525,2.89789 7,4.3519 2.475,1.454 5.175,3.07935 6,3.61187 4.8092,3.10423 21.183,12.99999 21.5102,12.99999 0.8244,0 9.2636,6.02249 10.4611,7.46542 0.6934,0.83547 4.3228,3.17296 8.0654,5.19442 8.3404,4.50481 9.8051,6.75933 7.9816,12.28481 -0.9761,2.95736 -2.219,4.39722 -4.8898,5.66463 -3.3824,1.60502 -3.8601,1.60116 -8.6048,-0.0694 -10.0494,-3.53822 -19.4481,-8.92217 -55.932,-32.03991 -1.7359,-1.1 -8.0093,-5.2625 -13.9408,-9.25 -5.9315,-3.9875 -10.9442,-7.25 -11.1395,-7.25 -0.1952,0 -3.4276,-2.06406 -7.1831,-4.5868 -3.7556,-2.52274 -12.1553,-7.81024 -18.6661,-11.75 -6.5108,-3.93976 -13.0358,-7.94574 -14.5,-8.90219 -1.4642,-0.95644 -3.3372,-2.05172 -4.1622,-2.43396 -0.825,-0.38223 -7.2997,-4.21219 -14.3882,-8.51101 C 1347.5233,368.51722 1341.5603,365 1341.3606,365 c -0.1996,0 -3.7147,-2.1375 -7.8114,-4.75 -13.5909,-8.66697 -18.9524,-11.97051 -29.5492,-18.20707 -5.775,-3.39875 -11.175,-6.59115 -12,-7.09421 -1.235,-0.75309 -15.3766,-9.50212 -21,-12.99216 -0.825,-0.51202 -9.825,-5.9661 -20,-12.12018 -10.175,-6.15408 -29.975,-18.1587 -44,-26.67694 -14.025,-8.51824 -27.525,-16.62466 -30,-18.01426 -2.475,-1.38961 -4.725,-2.78138 -5,-3.09282 -0.4566,-0.51709 -4.1101,-2.80343 -22.8832,-14.32021 -3.5107,-2.15374 -7.7857,-4.71253 -9.5,-5.6862 -9.6436,-5.47736 -39.1675,-23.66013 -39.4501,-24.29595 -0.1834,-0.4125 -0.811,-0.75 -1.3947,-0.75 -0.5838,0 -6.7338,-3.54741 -13.6667,-7.88313 -6.9329,-4.33572 -16.605,-10.29822 -21.4936,-13.25 -4.8886,-2.95178 -10.0636,-6.14909 -11.5,-7.10513 -1.4364,-0.95604 -3.3008,-2.08104 -4.143,-2.5 -0.8422,-0.41896 -4.8922,-2.84469 -9,-5.39053 -4.1078,-2.54583 -14.6687,-9.01678 -23.4687,-14.37989 -8.8,-5.36311 -17.93414,-10.93016 -20.29809,-12.37122 -2.36395,-1.44105 -7.66537,-4.7576 -11.78093,-7.3701 -4.11556,-2.6125 -7.67988,-4.75 -7.92072,-4.75 -0.24084,0 -3.49447,-1.9125 -7.23029,-4.25 -3.73581,-2.3375 -7.68734,-4.78696 -8.78118,-5.44324 C 956.32852,130.41064 921.49383,109.22513 910.5,102.51311 905,99.155215 898.31557,95.078581 895.64571,93.453923 881.02632,84.557758 870.6523,78.170311 863.68055,73.772482 c -4.30069,-2.712912 -9.41682,-5.599997 -11.36918,-6.415743 -3.48782,-1.457306 -3.70899,-1.401331 -12.68055,3.209211 -5.02195,2.580812 -10.32529,5.53426 -11.78519,6.563218 C 826.38573,78.158125 824.92752,79 824.60517,79 824.0356,79 815.88414,84.223149 788,102.45523 c -18.78936,12.28545 -23.61333,15.36176 -27.6004,17.60116 -1.90635,1.07073 -6.60397,3.85857 -10.43915,6.1952 -3.83519,2.33662 -7.75773,4.69867 -8.71676,5.24898 -0.95903,0.55032 -5.92267,3.47532 -11.03032,6.5 -5.10765,3.02469 -10.05765,5.95424 -11,6.51012 -0.94235,0.55588 -4.30961,2.69338 -7.48279,4.75 -3.17318,2.05662 -6.07399,3.73931 -6.44625,3.73931 -0.37225,0 -2.27602,1.06625 -4.23058,2.36944 -1.95456,1.30319 -12.55375,7.67057 -23.55375,14.14973 -11,6.47916 -22.7,13.43387 -26,15.45491 -3.3,2.02103 -6.675,3.97594 -7.5,4.34423 -0.825,0.36829 -4.425,2.52854 -8,4.80055 -3.575,2.27202 -7.85,4.91879 -9.5,5.88172 -1.65,0.96293 -5.925,3.54805 -9.5,5.74472 -17.07095,10.48929 -39.14448,23.96798 -45,27.4782 -8.72349,5.22949 -23.21014,14.45936 -24.70779,15.74206 -0.66429,0.56894 -1.49903,1.03444 -1.85498,1.03444 -0.35595,0 -2.6475,1.35 -5.09234,3 -2.44483,1.65 -4.69737,3 -5.00562,3 -0.30826,0 -3.45726,2.025 -6.99778,4.5 -3.54052,2.475 -6.62222,4.5 -6.84821,4.5 -0.226,0 -5.49194,3.22362 -11.70209,7.1636 -6.21016,3.93998 -15.56619,9.87032 -20.79119,13.17854 -10.09182,6.38965 -20.30373,12.90663 -28.5,18.18797 -2.75,1.77198 -9.62805,6.20261 -15.28455,9.84584 C 439.55894,317.01918 434.69002,320 434.39562,320 c -0.2944,0 -2.63867,1.4625 -5.2095,3.25 -6.80914,4.7344 -49.07607,31.5045 -54.26047,34.3663 -1.11226,0.61397 -6.38804,3.89189 -11.72397,7.28426 -15.39049,9.78469 -26.94123,16.98531 -30.45499,18.98535 -1.78568,1.01642 -11.34669,6.7681 -21.24669,12.78151 -9.9,6.01342 -18.675,11.24556 -19.5,11.62699 -0.825,0.38144 -4.425,2.54095 -8,4.79893 -3.575,2.25798 -8.3,5.13485 -10.5,6.39304 -35.20312,20.13286 -51.89441,29.76315 -56,32.31004 -10.90545,6.76515 -17.46539,8.62011 -21.71822,6.14126 z"
       id="path1" />
    <circle
       id="path2"
       style="fill:#000000;stroke:#000000"
       cx="1480.2305"
       cy="161.34325"
       r="0.94447595" />
  </g>
</svg>
